<svg id="visual" viewBox="0 0 900 600" width="900" height="600" xmlns="http://www.w3.org/2000/svg" xmlns:xlink="http://www.w3.org/1999/xlink" version="1.1"><g stroke-width="1" stroke-linejoin="bevel"><path d="M436 282L478 272L464 219Z" fill="#0e1924" stroke="#0e1924"></path><path d="M464 219L370 210L436 282Z" fill="#131d29" stroke="#131d29"></path><path d="M478 272L567 235L464 219Z" fill="#151f2b" stroke="#151f2b"></path><path d="M405 90L321 193L370 210Z" fill="#131d29" stroke="#131d29"></path><path d="M287 267L371 371L436 282Z" fill="#111b27" stroke="#111b27"></path><path d="M405 90L370 210L464 219Z" fill="#111b27" stroke="#111b27"></path><path d="M474 435L565 338L478 272Z" fill="#18222e" stroke="#18222e"></path><path d="M478 272L565 338L567 235Z" fill="#141e2a" stroke="#141e2a"></path><path d="M287 267L436 282L370 210Z" fill="#0f1a25" stroke="#0f1a25"></path><path d="M436 282L474 435L478 272Z" fill="#111b27" stroke="#111b27"></path><path d="M321 193L287 267L370 210Z" fill="#141e2a" stroke="#141e2a"></path><path d="M508 79L405 90L464 219Z" fill="#16202c" stroke="#16202c"></path><path d="M567 235L508 79L464 219Z" fill="#16202c" stroke="#16202c"></path><path d="M371 371L474 435L436 282Z" fill="#151f2b" stroke="#151f2b"></path><path d="M669 164L584 95L567 235Z" fill="#121c28" stroke="#121c28"></path><path d="M567 235L584 95L508 79Z" fill="#16202c" stroke="#16202c"></path><path d="M619 391L661 285L565 338Z" fill="#18222e" stroke="#18222e"></path><path d="M565 338L661 285L567 235Z" fill="#16202c" stroke="#16202c"></path><path d="M474 435L619 391L565 338Z" fill="#0e1924" stroke="#0e1924"></path><path d="M287 267L296 415L371 371Z" fill="#0e1924" stroke="#0e1924"></path><path d="M371 371L426 497L474 435Z" fill="#16202c" stroke="#16202c"></path><path d="M661 285L669 164L567 235Z" fill="#17212d" stroke="#17212d"></path><path d="M296 415L426 497L371 371Z" fill="#18222e" stroke="#18222e"></path><path d="M474 435L603 472L619 391Z" fill="#17212d" stroke="#17212d"></path><path d="M327 0L284 68L405 90Z" fill="#141e2a" stroke="#141e2a"></path><path d="M405 90L284 68L321 193Z" fill="#151f2b" stroke="#151f2b"></path><path d="M321 193L184 237L287 267Z" fill="#141e2a" stroke="#141e2a"></path><path d="M184 237L219 338L287 267Z" fill="#0f1a25" stroke="#0f1a25"></path><path d="M287 267L219 338L296 415Z" fill="#141e2a" stroke="#141e2a"></path><path d="M610 0L464 0L508 79Z" fill="#0e1924" stroke="#0e1924"></path><path d="M508 79L464 0L405 90Z" fill="#151f2b" stroke="#151f2b"></path><path d="M464 0L412 0L405 90Z" fill="#131d29" stroke="#131d29"></path><path d="M284 68L184 237L321 193Z" fill="#131d29" stroke="#131d29"></path><path d="M669 164L679 112L584 95Z" fill="#141e2a" stroke="#141e2a"></path><path d="M584 95L610 0L508 79Z" fill="#17212d" stroke="#17212d"></path><path d="M808 196L679 112L669 164Z" fill="#0f1a25" stroke="#0f1a25"></path><path d="M530 513L603 472L474 435Z" fill="#0f1a25" stroke="#0f1a25"></path><path d="M619 391L712 433L661 285Z" fill="#141e2a" stroke="#141e2a"></path><path d="M426 497L530 513L474 435Z" fill="#151f2b" stroke="#151f2b"></path><path d="M412 0L327 0L405 90Z" fill="#101b26" stroke="#101b26"></path><path d="M104 325L211 424L219 338Z" fill="#121c28" stroke="#121c28"></path><path d="M219 338L211 424L296 415Z" fill="#17212d" stroke="#17212d"></path><path d="M296 415L276 517L426 497Z" fill="#141e2a" stroke="#141e2a"></path><path d="M679 112L610 0L584 95Z" fill="#121c28" stroke="#121c28"></path><path d="M211 424L276 517L296 415Z" fill="#101b26" stroke="#101b26"></path><path d="M426 497L486 600L530 513Z" fill="#131d29" stroke="#131d29"></path><path d="M729 471L712 433L603 472Z" fill="#16202c" stroke="#16202c"></path><path d="M603 472L712 433L619 391Z" fill="#18222e" stroke="#18222e"></path><path d="M661 285L808 196L669 164Z" fill="#17212d" stroke="#17212d"></path><path d="M284 68L166 76L184 237Z" fill="#17212d" stroke="#17212d"></path><path d="M199 0L166 76L284 68Z" fill="#121c28" stroke="#121c28"></path><path d="M166 76L108 237L184 237Z" fill="#101b26" stroke="#101b26"></path><path d="M184 237L104 325L219 338Z" fill="#111b27" stroke="#111b27"></path><path d="M211 424L237 520L276 517Z" fill="#111b27" stroke="#111b27"></path><path d="M366 600L486 600L426 497Z" fill="#0e1924" stroke="#0e1924"></path><path d="M173 600L237 520L65 509Z" fill="#141e2a" stroke="#141e2a"></path><path d="M366 600L426 497L276 517Z" fill="#0e1924" stroke="#0e1924"></path><path d="M530 513L615 600L603 472Z" fill="#151f2b" stroke="#151f2b"></path><path d="M108 237L104 325L184 237Z" fill="#0e1924" stroke="#0e1924"></path><path d="M689 600L729 471L603 472Z" fill="#0e1924" stroke="#0e1924"></path><path d="M786 399L799 319L661 285Z" fill="#18222e" stroke="#18222e"></path><path d="M786 399L661 285L712 433Z" fill="#121c28" stroke="#121c28"></path><path d="M327 0L199 0L284 68Z" fill="#141e2a" stroke="#141e2a"></path><path d="M330 600L366 600L276 517Z" fill="#0f1a25" stroke="#0f1a25"></path><path d="M799 319L808 196L661 285Z" fill="#0e1924" stroke="#0e1924"></path><path d="M679 112L718 0L610 0Z" fill="#16202c" stroke="#16202c"></path><path d="M729 471L786 399L712 433Z" fill="#151f2b" stroke="#151f2b"></path><path d="M810 60L718 0L679 112Z" fill="#151f2b" stroke="#151f2b"></path><path d="M237 520L330 600L276 517Z" fill="#17212d" stroke="#17212d"></path><path d="M166 76L129 68L108 237Z" fill="#141e2a" stroke="#141e2a"></path><path d="M125 0L129 68L166 76Z" fill="#101b26" stroke="#101b26"></path><path d="M486 600L615 600L530 513Z" fill="#141e2a" stroke="#141e2a"></path><path d="M0 275L74 376L104 325Z" fill="#0e1924" stroke="#0e1924"></path><path d="M104 325L74 376L211 424Z" fill="#0e1924" stroke="#0e1924"></path><path d="M0 275L104 325L108 237Z" fill="#0f1a25" stroke="#0f1a25"></path><path d="M808 196L810 60L679 112Z" fill="#17212d" stroke="#17212d"></path><path d="M199 0L125 0L166 76Z" fill="#111b27" stroke="#111b27"></path><path d="M0 197L0 275L108 237Z" fill="#131d29" stroke="#131d29"></path><path d="M810 60L786 0L718 0Z" fill="#101b26" stroke="#101b26"></path><path d="M615 600L689 600L603 472Z" fill="#101b26" stroke="#101b26"></path><path d="M729 471L809 515L786 399Z" fill="#101b26" stroke="#101b26"></path><path d="M689 600L809 515L729 471Z" fill="#151f2b" stroke="#151f2b"></path><path d="M900 370L900 280L799 319Z" fill="#18222e" stroke="#18222e"></path><path d="M799 319L900 280L808 196Z" fill="#121c28" stroke="#121c28"></path><path d="M808 196L900 103L810 60Z" fill="#131d29" stroke="#131d29"></path><path d="M65 509L237 520L211 424Z" fill="#151f2b" stroke="#151f2b"></path><path d="M237 520L173 600L330 600Z" fill="#111b27" stroke="#111b27"></path><path d="M900 370L799 319L786 399Z" fill="#131d29" stroke="#131d29"></path><path d="M810 60L900 0L786 0Z" fill="#121c28" stroke="#121c28"></path><path d="M0 197L108 237L129 68Z" fill="#16202c" stroke="#16202c"></path><path d="M74 376L65 509L211 424Z" fill="#101b26" stroke="#101b26"></path><path d="M0 98L0 197L129 68Z" fill="#18222e" stroke="#18222e"></path><path d="M900 280L900 176L808 196Z" fill="#121c28" stroke="#121c28"></path><path d="M0 387L65 509L74 376Z" fill="#111b27" stroke="#111b27"></path><path d="M900 497L900 370L786 399Z" fill="#151f2b" stroke="#151f2b"></path><path d="M0 275L0 387L74 376Z" fill="#17212d" stroke="#17212d"></path><path d="M900 176L900 103L808 196Z" fill="#16202c" stroke="#16202c"></path><path d="M0 0L0 98L129 68Z" fill="#18222e" stroke="#18222e"></path><path d="M65 509L109 600L173 600Z" fill="#151f2b" stroke="#151f2b"></path><path d="M0 600L109 600L65 509Z" fill="#17212d" stroke="#17212d"></path><path d="M689 600L797 600L809 515Z" fill="#17212d" stroke="#17212d"></path><path d="M809 515L900 497L786 399Z" fill="#121c28" stroke="#121c28"></path><path d="M900 600L900 497L809 515Z" fill="#16202c" stroke="#16202c"></path><path d="M900 103L900 0L810 60Z" fill="#0f1a25" stroke="#0f1a25"></path><path d="M125 0L0 0L129 68Z" fill="#131d29" stroke="#131d29"></path><path d="M0 387L0 506L65 509Z" fill="#0f1a25" stroke="#0f1a25"></path><path d="M797 600L900 600L809 515Z" fill="#16202c" stroke="#16202c"></path><path d="M0 506L0 600L65 509Z" fill="#121c28" stroke="#121c28"></path></g></svg>